# xmcd
#
# Track frame offsets: 
#        150
#        16320
#        32644
#        49383
#
# Disc length: 910 seconds
#
# Revision: 1
# Processed by: cddbd v1.5.2PL0 Copyright (c) Steve Scherf et al.
# Submitted via: ExactAudioCopy v0.99pb5
#
DISCID=2b038c04
DTITLE=Christie Lamb - Christie Lamb
DYEAR=2011
DGENRE=Country
TTITLE0=Mr Wrong
TTITLE1=Walk Away
TTITLE2=Invincible Me
TTITLE3=Ten Thousand Miles
EXTD=
EXTT0=
EXTT1=
EXTT2=
EXTT3=
PLAYORDER=
